nColumns=19
nRows=53
DataType=double
version=3
OpenSimVersion=4.1
endheader
time	ground_force_calcn_r_vx	ground_force_calcn_r_vy	ground_force_calcn_r_vz	ground_force_calcn_r_px	ground_force_calcn_r_py	ground_force_calcn_r_pz	ground_force_calcn_r_mx	ground_force_calcn_r_my	ground_force_calcn_r_mz	ground_force_calcn_l_vx	ground_force_calcn_l_vy	ground_force_calcn_l_vz	ground_force_calcn_l_px	ground_force_calcn_l_py	ground_force_calcn_l_pz	ground_force_calcn_l_mx	ground_force_calcn_l_my	ground_force_calcn_l_mz
9.84	8.76847	517.017	-51.4363	-0.229292	0	-0.409062	-0.0194202	-1.14508	0.11392	-6.10832	89.687	14.6884	-0.100263	0	-0.924233	-0.0321744	0.472409	0.0773681
9.85	9.50927	522.818	-53.8141	-0.229842	0	-0.40819	-0.0142538	-0.783671	0.0806639	-4.64238	69.3595	10.9585	-0.0904981	0	-0.925127	-0.0341623	0.510403	0.0806418
9.86	10.1259	529.086	-56.0496	-0.230519	0	-0.407302	-0.00873756	-0.456543	0.0483646	-3.35429	52.2721	7.99449	-0.0775256	0	-0.926159	-0.0342942	0.53443	0.0817356
9.87	10.6171	535.938	-58.1499	-0.231354	0	-0.406417	-0.00333161	-0.168176	0.0182473	-2.26356	38.3608	5.72062	-0.0596287	0	-0.927357	-0.0320384	0.542957	0.0809694
9.88	10.9867	543.48	-60.1322	-0.232369	0	-0.405554	0.00158218	0.0782659	-0.00865955	-1.37139	27.4533	4.04603	-0.0342259	0	-0.928724	-0.0267028	0.534552	0.0787815
9.89	11.2436	551.788	-62.0192	-0.233575	0	-0.404732	0.00572506	0.280963	-0.0315793	0	0	0	0	0	0	0	0	0
9.9	11.4026	560.89	-63.8337	-0.234968	0	-0.403967	0.00893016	0.439273	-0.0499928	0	0	0	0	0	0	0	0	0
9.91	11.4832	570.746	-65.5905	-0.236531	0	-0.403273	0.0111386	0.553616	-0.0636219	0	0	0	0	0	0	0	0	0
9.92	11.5069	581.248	-67.2908	-0.238239	0	-0.402666	0.0123865	0.625682	-0.072435	0	0	0	0	0	0	0	0	0
9.93	11.4936	592.219	-68.9221	-0.240062	0	-0.402154	0.0127832	0.658665	-0.0766551	0	0	0	0	0	0	0	0	0
9.94	11.4621	603.435	-70.4607	-0.241967	0	-0.401747	0.0124852	0.657302	-0.0767505	0	0	0	0	0	0	0	0	0
9.95	11.4301	614.645	-71.8775	-0.243924	0	-0.401445	0.0116728	0.627698	-0.073404	0	0	0	0	0	0	0	0	0
9.96	11.4151	625.583	-73.1425	-0.245907	0	-0.40125	0.0105269	0.576906	-0.0674512	0	0	0	0	0	0	0	0	0
9.97	11.4338	635.985	-74.2275	-0.247893	0	-0.401153	0.00921175	0.512389	-0.0598023	0	0	0	0	0	0	0	0	0
9.98	11.5011	645.586	-75.1071	-0.249865	0	-0.40115	0.0078637	0.441408	-0.0513533	0	0	0	0	0	0	0	0	0
9.99	11.6303	654.12	-75.7585	-0.251812	0	-0.40123	0.00658743	0.370494	-0.0429097	0.00975487	20.6112	1.36986	-0.0109188	0	-0.919426	0.000189337	0.400053	0.0265883
10	11.8303	661.338	-76.1635	-0.253721	0	-0.401385	0.00545978	0.305212	-0.03515	-0.204912	23.5783	1.06543	-0.0242013	0	-0.917683	-0.00398343	0.458353	0.0207116
10.01	12.1019	667.035	-76.3102	-0.255582	0	-0.401603	0.00453725	0.250086	-0.0286103	-0.452742	26.6149	0.672332	-0.0349332	0	-0.91594	-0.00891198	0.5239	0.0132345
10.02	12.436	671.08	-76.1958	-0.257383	0	-0.401872	0.00386199	0.208403	-0.0236625	-0.724482	29.7456	0.217752	-0.0440509	0	-0.914206	-0.0144527	0.593394	0.00434393
10.03	12.8161	673.431	-75.8276	-0.259114	0	-0.402184	0.00346636	0.182142	-0.020509	-1.00922	33.0254	-0.25952	-0.0522241	0	-0.912494	-0.020239	0.662296	-0.00520445
10.04	13.221	674.128	-75.2235	-0.260758	0	-0.402528	0.00337721	0.172202	-0.0192154	-1.29922	36.5347	-0.712212	-0.0599154	0	-0.910832	-0.0258063	0.725687	-0.0141466
10.05	13.6286	673.282	-74.4108	-0.262303	0	-0.402894	0.00361419	0.178549	-0.0197331	-1.58959	40.3669	-1.08942	-0.0674088	0	-0.909252	-0.0306805	0.779119	-0.0210269
10.06	14.0207	671.056	-73.4234	-0.263735	0	-0.40327	0.00418666	0.200382	-0.0219247	-1.87661	44.6137	-1.34136	-0.0748355	0	-0.90778	-0.0344634	0.819315	-0.0246337
10.07	14.3858	667.64	-72.2989	-0.265039	0	-0.403649	0.00509234	0.236333	-0.0255925	-2.15709	49.3516	-1.42297	-0.0822163	0	-0.906437	-0.0369146	0.844561	-0.0243515
10.08	14.7189	663.231	-71.0747	-0.266205	0	-0.404021	0.00631582	0.284591	-0.0304979	-2.42701	54.6395	-1.29601	-0.0895124	0	-0.905235	-0.0379687	0.854794	-0.0202752
10.09	15.018	658.015	-69.784	-0.26722	0	-0.404379	0.00782653	0.342922	-0.0363676	-2.681	60.5207	-0.928562	-0.0966744	0	-0.904175	-0.0377075	0.851207	-0.01306
10.1	15.2835	652.152	-68.4545	-0.268073	0	-0.404715	0.00957819	0.408705	-0.0429006	-2.91059	67.0264	-0.29338	-0.103659	0	-0.903254	-0.03629	0.835701	-0.00365793
10.11	15.5173	645.771	-67.1104	-0.268756	0	-0.405023	0.01151	0.479002	-0.0497793	-3.10296	74.1825	0.632904	-0.110446	0	-0.902458	-0.0338967	0.810368	0.00691384
10.12	15.722	638.976	-65.7743	-0.269263	0	-0.405296	0.013545	0.550499	-0.0566667	-3.24302	82.0174	1.87186	-0.117047	0	-0.901768	-0.0307265	0.777087	0.0177353
10.13	15.8988	631.843	-64.4681	-0.269589	0	-0.405529	0.0155933	0.619705	-0.0632296	-3.31662	90.5652	3.44537	-0.123489	0	-0.901163	-0.0269938	0.737106	0.0280417
10.14	16.0413	624.427	-63.2121	-0.26973	0	-0.405719	0.017556	0.68339	-0.0691811	-3.31326	99.8666	5.37599	-0.129803	0	-0.900627	-0.0229204	0.690855	0.0371899
10.15	16.1309	616.767	-62.0218	-0.269685	0	-0.405862	0.019328	0.739007	-0.0743143	-3.22666	109.967	7.68551	-0.136009	0	-0.900144	-0.0187213	0.638034	0.0445918
10.16	16.1397	608.892	-60.9047	-0.269453	0	-0.405955	0.0208032	0.784831	-0.0785031	-3.05335	120.912	10.391	-0.142114	0	-0.899692	-0.0145953	0.577971	0.0496699
10.17	16.038	600.825	-59.8608	-0.269031	0	-0.405997	0.0218847	0.819855	-0.0816829	-2.79191	132.743	13.4994	-0.148115	0	-0.899249	-0.0107301	0.510169	0.0518818
10.18	15.8004	592.593	-58.8847	-0.268421	0	-0.405988	0.0224942	0.843641	-0.0838308	-2.44321	145.489	17.0021	-0.153998	0	-0.898784	-0.0072988	0.434631	0.0507917
10.19	15.4077	584.232	-57.9687	-0.267622	0	-0.40593	0.0225795	0.856172	-0.0849511	-2.01236	159.158	20.872	-0.159752	0	-0.898266	-0.00445117	0.352044	0.046167
10.2	14.8479	575.785	-57.1051	-0.266641	0	-0.405826	0.0221171	0.857675	-0.0850623	-1.51132	173.732	25.0653	-0.165365	0	-0.897663	-0.00229327	0.263621	0.038034
10.21	14.1162	567.303	-56.2898	-0.265486	0	-0.405678	0.021116	0.84861	-0.0842021	-0.959297	189.146	29.5237	-0.170826	0	-0.896949	-0.000866189	0.170788	0.0266582
10.22	13.2145	558.837	-55.5235	-0.264167	0	-0.405493	0.0196194	0.829695	-0.0824346	-0.378959	205.282	34.1738	-0.176131	0	-0.896102	-0.000139141	0.0753729	0.0125475
10.23	12.1521	550.437	-54.8113	-0.262703	0	-0.405269	0.0177064	0.802023	-0.0798636	0.208719	221.97	38.9262	-0.181281	0	-0.895107	-1.90404e-05	-0.0202492	-0.00355105
10.24	10.9469	542.146	-54.1613	-0.261114	0	-0.405012	0.0154873	0.767012	-0.0766258	0.790737	238.998	43.6792	-0.186273	0	-0.893958	-0.000374339	-0.113143	-0.020678
10.25	9.62514	534	-53.5824	-0.259419	0	-0.404723	0.0130911	0.726289	-0.0728771	1.36118	256.13	48.3271	-0.191113	0	-0.892657	-0.00106311	-0.200043	-0.0377444
10.26	8.22079	526.024	-53.0821	-0.257643	0	-0.404406	0.0106512	0.681536	-0.0687752	1.91222	273.122	52.7676	-0.195794	0	-0.891216	-0.00194454	-0.277738	-0.0536596
10.27	6.77229	518.236	-52.6649	-0.255809	0	-0.404063	0.00828969	0.634353	-0.064465	2.42924	289.719	56.9064	-0.200305	0	-0.889655	-0.00287944	-0.343411	-0.0674525
10.28	5.31741	510.642	-52.3302	-0.253939	0	-0.403697	0.00610371	0.586153	-0.0600684	2.893	305.662	60.6581	-0.204623	0	-0.888004	-0.00373968	-0.395117	-0.0784104
10.29	3.88792	503.24	-52.0715	-0.252054	0	-0.403314	0.00415798	0.538196	-0.0556885	3.28344	320.679	63.9523	-0.20872	0	-0.886298	-0.00442562	-0.432231	-0.0861989
10.3	2.50688	496.027	-51.8767	-0.250173	0	-0.402915	0.00248443	0.491585	-0.0514121	3.58399	334.491	66.7398	-0.212563	0	-0.884578	-0.0048817	-0.455606	-0.0909053
10.31	1.19002	489.016	-51.7294	-0.248314	0	-0.402509	0.00108835	0.447239	-0.0473101	3.78468	346.818	68.9976	-0.216121	0	-0.882886	-0.0051005	-0.467396	-0.092986
10.32	-0.0473277	482.244	-51.613	-0.246498	0	-0.402099	-3.98233e-05	0.405778	-0.0434291	3.8835	357.405	70.7287	-0.219377	0	-0.881261	-0.00511235	-0.470498	-0.0931092
10.33	-1.18162	475.779	-51.513	-0.244748	0	-0.401693	-0.000912435	0.367391	-0.0397777	3.88633	366.056	71.9588	-0.222317	0	-0.879733	-0.00496753	-0.467895	-0.0919782
10.34	-2.17729	469.712	-51.4207	-0.243091	0	-0.401296	-0.0015382	0.33184	-0.0363275	3.80536	372.672	72.7315	-0.224945	0	-0.878327	-0.00471969	-0.462215	-0.0902068
10.35	-2.99206	464.139	-51.3339	-0.241553	0	-0.400916	-0.00192376	0.29842	-0.0330054	3.65744	377.268	73.1014	-0.227268	0	-0.877053	-0.00441499	-0.45541	-0.0882426
10.36	-3.5896	459.146	-51.2562	-0.240159	0	-0.400555	-0.00208018	0.266076	-0.029703	3.46242	379.975	73.1271	-0.229302	0	-0.875917	-0.00408807	-0.448635	-0.086341
